<svg width="239" height="238" viewBox="0 0 239 238" fill="none" xmlns="http://www.w3.org/2000/svg">
<rect x="41" y="42" width="164" height="151" fill="#FAFEFD"/>
<path d="M119.569 0.109375C53.9877 0.109375 0.824219 53.2729 0.824219 118.854C0.824219 184.436 53.9877 237.6 119.569 237.6C185.151 237.6 238.314 184.436 238.314 118.854C238.314 53.2729 185.151 0.109375 119.569 0.109375ZM100.828 161.288C100.828 166.496 96.5929 170.73 91.3853 170.73C86.1776 170.73 81.9429 166.496 81.9429 161.288V76.4782C81.9429 71.2706 86.1776 67.0358 91.3853 67.0358C96.5929 67.0358 100.828 71.2706 100.828 76.4782V161.288ZM157.196 161.288C157.196 166.496 152.961 170.73 147.753 170.73C142.546 170.73 138.311 166.496 138.311 161.288V76.4782C138.311 71.2706 142.546 67.0358 147.753 67.0358C152.961 67.0358 157.196 71.2706 157.196 76.4782V161.288Z" fill="#7E6FFE"/>
</svg>
