<svg width="235" height="235" viewBox="0 0 235 235" fill="none" xmlns="http://www.w3.org/2000/svg">
<path d="M0 117.5C0 148.663 12.3794 178.55 34.415 200.585C56.4505 222.621 86.3371 235 117.5 235C148.663 235 178.55 222.621 200.585 200.585C222.621 178.55 235 148.663 235 117.5C235 86.3371 222.621 56.4505 200.585 34.415C178.55 12.3794 148.663 0 117.5 0C86.3371 0 56.4505 12.3794 34.415 34.415C12.3794 56.4505 0 86.3371 0 117.5Z" fill="#F2F5FE"/>
<path d="M72.8498 85.1891H43.2174C41.2307 85.1891 39.3254 85.9783 37.9206 87.3831C36.5158 88.7879 35.7266 90.6933 35.7266 92.68V138.227C35.7266 142.36 39.0804 145.714 43.2174 145.714H72.8498C74.1849 145.714 75.4951 146.07 76.6487 146.747L124.129 190.951C129.12 193.889 135.415 190.289 135.415 184.497V46.4067C135.415 40.6141 129.12 37.0147 124.129 39.9519L76.6487 84.1566C75.4951 84.8331 74.1849 85.1891 72.8498 85.1891Z" fill="#806FFB"/>
<path d="M162.279 163.686C161.575 163.687 160.885 163.479 160.299 163.088C159.712 162.697 159.255 162.141 158.986 161.49C158.716 160.839 158.646 160.122 158.784 159.431C158.922 158.74 159.263 158.105 159.762 157.608C181.971 135.399 181.971 99.2548 159.762 77.0456C159.432 76.7151 159.17 76.3227 158.991 75.8908C158.812 75.4589 158.72 74.996 158.72 74.5285C158.72 74.061 158.812 73.5981 158.991 73.1663C159.17 72.7344 159.432 72.3419 159.762 72.0114C160.093 71.6808 160.485 71.4186 160.917 71.2397C161.349 71.0608 161.812 70.9687 162.279 70.9688C162.747 70.9688 163.21 71.0608 163.642 71.2397C164.074 71.4186 164.466 71.6808 164.797 72.0114C189.783 97.0011 189.783 137.656 164.797 162.642C164.129 163.31 163.224 163.685 162.279 163.686Z" fill="#806FFB"/>
<path d="M149.674 149.301C148.969 149.303 148.28 149.095 147.693 148.704C147.107 148.313 146.65 147.757 146.38 147.106C146.11 146.455 146.04 145.738 146.179 145.047C146.317 144.356 146.657 143.721 147.157 143.224C162.455 127.925 162.455 103.032 147.157 87.7331C146.826 87.4026 146.564 87.0102 146.385 86.5783C146.206 86.1464 146.114 85.6835 146.114 85.216C146.114 84.7485 146.206 84.2856 146.385 83.8538C146.564 83.4219 146.826 83.0294 147.157 82.6989C147.487 82.3683 147.88 82.1061 148.312 81.9272C148.744 81.7483 149.207 81.6562 149.674 81.6562C150.141 81.6563 150.604 81.7483 151.036 81.9272C151.468 82.1061 151.861 82.3683 152.191 82.6989C170.267 100.775 170.267 130.183 152.191 148.258C151.861 148.589 151.469 148.852 151.037 149.031C150.605 149.21 150.142 149.302 149.674 149.301Z" fill="#806FFB"/>
<path d="M172.717 181.342C172.012 181.344 171.323 181.136 170.736 180.745C170.15 180.354 169.693 179.798 169.423 179.146C169.153 178.495 169.083 177.779 169.221 177.088C169.36 176.396 169.7 175.762 170.2 175.265C185.708 159.76 194.25 139.156 194.25 117.257C194.25 95.3573 185.708 74.7539 170.2 59.2488C169.869 58.9182 169.607 58.5258 169.428 58.0939C169.249 57.662 169.157 57.1991 169.157 56.7316C169.157 56.2642 169.249 55.8013 169.428 55.3694C169.607 54.9375 169.869 54.5451 170.2 54.2145C170.53 53.884 170.923 53.6217 171.355 53.4428C171.787 53.264 172.249 53.1719 172.717 53.1719C173.184 53.1719 173.647 53.264 174.079 53.4428C174.511 53.6217 174.904 53.884 175.234 54.2145C192.089 71.0654 201.37 93.4526 201.37 117.257C201.37 141.061 192.089 163.448 175.234 180.299C174.904 180.63 174.512 180.893 174.08 181.072C173.648 181.251 173.185 181.343 172.717 181.342Z" fill="#806FFB"/>
</svg>
