<svg width="32" height="32" viewBox="0 0 32 32" fill="none" xmlns="http://www.w3.org/2000/svg">
<path d="M16.1125 1.46094C7.8 1.46094 1 8.24844 1 16.5609C1 24.8734 7.8 31.6734 16.1125 31.6734C24.425 31.6734 31.225 24.8734 31.225 16.5609C31.225 8.24844 24.425 1.46094 16.1125 1.46094ZM16.1125 29.7734C8.7375 29.7734 2.9 23.9109 2.9 16.5484C2.9 9.17344 8.7375 3.33594 16.1125 3.33594C23.4875 3.33594 29.325 9.19844 29.325 16.5609C29.325 23.9359 23.4875 29.7734 16.1125 29.7734Z" fill="black"/>
<path d="M22.2609 11.3713H19.4484V10.8213L19.4109 10.7338C19.3734 10.6338 18.3359 8.15885 13.2484 8.67135L12.7984 8.72135V11.3713H9.96094C8.82344 11.3713 7.89844 12.2963 7.89844 13.4338V22.4588C7.89844 23.5963 8.82344 24.5213 9.96094 24.5213H22.2734C23.4109 24.5213 24.3359 23.5963 24.3359 22.4588V13.4338C24.3234 12.2963 23.3984 11.3713 22.2609 11.3713ZM13.3984 19.0838C13.4234 19.0838 16.0984 18.6339 17.5734 19.6964C18.0359 20.0339 18.3109 20.4713 18.4359 21.0463C18.1359 21.4213 16.9984 22.3088 15.8984 23.0838H9.96094C9.62344 23.0838 9.34844 22.8088 9.34844 22.4713V13.4463C9.34844 13.1088 9.62344 12.8338 9.96094 12.8338H12.8109V19.1964L13.3984 19.0838ZM19.4234 21.2963L19.4484 21.2088V12.8088H22.2609C22.5984 12.8088 22.8734 13.0838 22.8734 13.4214V22.4464C22.8734 22.7839 22.5984 23.0588 22.2609 23.0588H17.5859C18.4609 22.4088 19.2734 21.7088 19.4234 21.2963ZM13.8109 9.63385C17.2484 9.39635 18.2734 10.7338 18.4609 11.0338V11.3713H18.4359V12.8213H18.4609V19.1213C18.3734 19.0338 18.2734 18.9589 18.1609 18.8839C17.1484 18.1464 15.7609 17.9838 14.7234 17.9838C14.3734 17.9838 14.0609 17.9963 13.8234 18.0213V9.63385H13.8109Z" fill="black"/>
</svg>
