<svg width="235" height="235" viewBox="0 0 235 235" fill="none" xmlns="http://www.w3.org/2000/svg">
<path d="M0 117.5C0 148.663 12.3794 178.55 34.415 200.585C56.4505 222.621 86.3371 235 117.5 235C148.663 235 178.55 222.621 200.585 200.585C222.621 178.55 235 148.663 235 117.5C235 86.3371 222.621 56.4505 200.585 34.415C178.55 12.3794 148.663 0 117.5 0C86.3371 0 56.4505 12.3794 34.415 34.415C12.3794 56.4505 0 86.3371 0 117.5Z" fill="#7E6FFE"/>
<path d="M73.0551 85.3261H43.5551C41.5772 85.3261 39.6804 86.1118 38.2819 87.5103C36.8833 88.9088 36.0977 90.8057 36.0977 92.7835V138.127C36.0977 142.242 39.4365 145.581 43.5551 145.581H73.0551C74.3842 145.581 75.6886 145.935 76.8369 146.609L124.105 190.616C129.074 193.54 135.341 189.957 135.341 184.19V46.717C135.341 40.9502 129.074 37.3669 124.105 40.291L76.8369 84.2982C75.6886 84.9716 74.3842 85.3261 73.0551 85.3261Z" fill="#FEFEFE"/>
<path d="M162.084 163.467C161.382 163.468 160.696 163.261 160.112 162.872C159.528 162.483 159.073 161.929 158.805 161.281C158.536 160.633 158.466 159.919 158.604 159.231C158.742 158.543 159.081 157.911 159.578 157.416C181.688 135.306 181.688 99.3238 159.578 77.2138C159.249 76.8847 158.988 76.4941 158.81 76.0641C158.632 75.6341 158.54 75.1733 158.54 74.7079C158.54 74.2425 158.632 73.7817 158.81 73.3517C158.988 72.9218 159.249 72.5311 159.578 72.202C159.907 71.873 160.298 71.6119 160.728 71.4338C161.158 71.2557 161.618 71.1641 162.084 71.1641C162.549 71.1641 163.01 71.2557 163.44 71.4338C163.87 71.6119 164.261 71.873 164.59 72.202C189.464 97.0802 189.464 137.554 164.59 162.428C163.925 163.093 163.024 163.467 162.084 163.467Z" fill="#FEFEFE"/>
<path d="M149.537 149.148C148.835 149.149 148.149 148.942 147.565 148.553C146.981 148.164 146.526 147.61 146.258 146.962C145.989 146.314 145.919 145.6 146.057 144.912C146.195 144.224 146.534 143.592 147.031 143.097C162.261 127.867 162.261 103.085 147.031 87.8544C146.702 87.5254 146.441 87.1347 146.263 86.7047C146.085 86.2748 145.993 85.8139 145.993 85.3486C145.993 84.8832 146.085 84.4223 146.263 83.9924C146.441 83.5624 146.702 83.1717 147.031 82.8427C147.36 82.5136 147.751 82.2525 148.181 82.0744C148.611 81.8964 149.072 81.8047 149.537 81.8047C150.002 81.8047 150.463 81.8964 150.893 82.0744C151.323 82.2525 151.714 82.5136 152.043 82.8427C170.038 100.838 170.038 130.114 152.043 148.109C151.714 148.439 151.324 148.7 150.894 148.878C150.463 149.057 150.002 149.148 149.537 149.148Z" fill="#FEFEFE"/>
<path d="M172.474 181.051C171.773 181.052 171.086 180.845 170.503 180.456C169.919 180.067 169.464 179.513 169.195 178.865C168.927 178.217 168.857 177.503 168.995 176.815C169.132 176.127 169.471 175.496 169.969 175.001C185.408 159.565 193.911 139.053 193.911 117.252C193.911 95.4501 185.408 74.9387 169.969 59.5029C169.639 59.1738 169.378 58.7831 169.2 58.3532C169.022 57.9232 168.931 57.4624 168.931 56.997C168.931 56.5316 169.022 56.0708 169.2 55.6408C169.378 55.2108 169.639 54.8202 169.969 54.4911C170.298 54.162 170.688 53.901 171.118 53.7229C171.548 53.5448 172.009 53.4531 172.474 53.4531C172.94 53.4531 173.401 53.5448 173.831 53.7229C174.261 53.901 174.651 54.162 174.98 54.4911C191.76 71.2667 201 93.5539 201 117.252C201 140.95 191.76 163.237 174.98 180.012C174.652 180.342 174.261 180.603 173.831 180.782C173.401 180.96 172.94 181.051 172.474 181.051Z" fill="#FEFEFE"/>
</svg>
