<svg width="235" height="235" viewBox="0 0 235 235" fill="none" xmlns="http://www.w3.org/2000/svg">
<path d="M0 117.5C0 148.663 12.3794 178.55 34.415 200.585C56.4505 222.621 86.3371 235 117.5 235C148.663 235 178.55 222.621 200.585 200.585C222.621 178.55 235 148.663 235 117.5C235 86.3371 222.621 56.4505 200.585 34.415C178.55 12.3794 148.663 0 117.5 0C86.3371 0 56.4505 12.3794 34.415 34.415C12.3794 56.4505 0 86.3371 0 117.5Z" fill="#7E6FFE"/>
<path d="M26.9843 127.842C26.7973 126.396 27.1874 124.934 28.0701 123.773C28.9529 122.612 30.2573 121.845 31.7012 121.638C33.1636 121.435 34.6482 121.803 35.8461 122.666C37.044 123.529 37.863 124.821 38.1327 126.273C39.8958 136.956 43.7797 147.179 49.5555 156.338C55.3312 165.497 62.882 173.407 71.7627 179.602C108.017 205.043 157.411 197.098 182.203 161.768C206.996 126.439 197.67 77.2865 161.416 51.8452C125.162 26.4039 75.7682 34.3493 50.9757 69.6786L50.8619 69.8408L65.0552 79.8011L25.2541 98.5699L29.3691 54.7582L41.6159 63.3524L41.7297 63.1902C70.0282 22.8649 126.531 13.7589 167.976 42.8429C209.339 71.8699 219.991 128.102 191.693 168.427C163.394 208.753 106.891 217.859 65.4465 188.775C44.6026 174.147 31.0225 152.101 26.9843 127.842ZM91.7017 82.365C91.8015 81.1216 92.232 79.9275 92.9485 78.9065C93.6651 77.8854 94.6416 77.0746 95.7769 76.5579C96.9013 76.0368 98.1451 75.8275 99.3781 75.9517C100.611 76.076 101.788 76.5293 102.786 77.2642L153.152 112.609C155.18 114.032 156.386 116.452 156.2 118.96C156.061 120.194 155.627 121.33 154.949 122.295C154.266 123.268 153.346 124.062 152.263 124.743L98.1716 148.179C97.0472 148.7 95.8034 148.909 94.5704 148.785C93.3373 148.66 92.1603 148.207 91.1624 147.472C89.1348 146.049 87.9225 143.637 88.1146 141.121L91.7017 82.365Z" fill="#F9FDFF"/>
</svg>
