<svg width="34" height="32" viewBox="0 0 34 32" fill="none" xmlns="http://www.w3.org/2000/svg">
<g clip-path="url(#clip0_1865_35)">
<path d="M31.7659 9.99207C30.9073 9.99207 30.2049 10.6945 30.2049 11.553V28.4116H3.12195V4.99695H12.722C13.5805 4.99695 14.2829 4.29451 14.2829 3.43598C14.2829 2.57744 13.5805 1.875 12.722 1.875H2.34146C1.09268 1.875 0 2.88963 0 4.21646V29.2701C0 30.5189 1.01463 31.6116 2.34146 31.6116H31.0634C32.3122 31.6116 33.4049 30.597 33.4049 29.2701V11.553C33.3268 10.6945 32.6244 9.99207 31.7659 9.99207Z" fill="black"/>
<path fill-rule="evenodd" clip-rule="evenodd" d="M23.9951 4.90244L20.3268 7.16585C19.9366 7.4 19.4683 7.32195 19.1561 6.93171C19.078 6.77561 19 6.61951 19 6.46341V1.85854C19 1.39024 19.3902 1 19.8585 1C20.0146 1 20.1707 1.07805 20.3268 1.1561L20.3268 1.1561L24.0732 3.41951C24.4634 3.65366 24.5415 4.2 24.3073 4.59024C24.2293 4.74634 24.1512 4.82439 23.9951 4.90244ZM31.6439 4.90244L27.9756 7.16585C27.5854 7.4 27.039 7.32195 26.8049 7.00976C26.7268 6.85366 26.6488 6.69756 26.6488 6.54146V1.93659C26.6488 1.46829 27.039 1.07805 27.5073 1.07805C27.6634 1.07805 27.8195 1.1561 27.9756 1.23415L31.6439 3.49756C32.0341 3.73171 32.1122 4.27805 31.878 4.66829C31.878 4.72033 31.8087 4.77236 31.7393 4.82439C31.7046 4.85041 31.6699 4.87642 31.6439 4.90244Z" fill="black"/>
</g>
<defs>
<clipPath id="clip0_1865_35">
<rect width="33.5312" height="32" fill="white"/>
</clipPath>
</defs>
</svg>
