<?xml version="1.0" standalone="no"?><!DOCTYPE svg PUBLIC "-//W3C//DTD SVG 1.1//EN" "http://www.w3.org/Graphics/SVG/1.1/DTD/svg11.dtd"><svg t="1744198848512" class="icon" viewBox="0 0 1024 1024" version="1.1" xmlns="http://www.w3.org/2000/svg" p-id="19765" id="mx_n_1744198848513" xmlns:xlink="http://www.w3.org/1999/xlink" width="32" height="32"><path d="M512 1024c-68.8 0-136-12.8-200-40-60.8-25.6-115.2-62.4-163.2-110.4-46.4-46.4-83.2-102.4-110.4-163.2C14.4 648 0 580.8 0 512s12.8-136 40-200c25.6-60.8 62.4-115.2 110.4-163.2 46.4-46.4 102.4-83.2 163.2-110.4C376 12.8 443.2 0 512 0c68.8 0 136 12.8 200 40 60.8 25.6 115.2 62.4 163.2 110.4 46.4 46.4 83.2 102.4 110.4 163.2 25.6 60.8 38.4 128 38.4 198.4s-12.8 136-40 200c-25.6 60.8-62.4 115.2-110.4 163.2-46.4 46.4-102.4 83.2-163.2 110.4-60.8 24-128 38.4-198.4 38.4z m0-971.2C260.8 52.8 54.4 259.2 54.4 512S260.8 969.6 512 969.6 971.2 763.2 971.2 512 764.8 52.8 512 52.8z" fill="#2288D3" p-id="19766"></path><path d="M656 782.4c-9.6 0-19.2-1.6-27.2-6.4-36.8-19.2-91.2-46.4-113.6-57.6-27.2 12.8-78.4 40-115.2 57.6-9.6 4.8-19.2 6.4-27.2 6.4-14.4 0-28.8-6.4-38.4-16-11.2-11.2-16-28.8-14.4-46.4 4.8-43.2 12.8-100.8 16-124.8-19.2-20.8-65.6-75.2-96-110.4-12.8-14.4-16-33.6-8-51.2 6.4-19.2 24-32 46.4-35.2 40-8 97.6-19.2 121.6-24 12.8-24 44.8-83.2 67.2-123.2 4.8-11.2 20.8-41.6 49.6-41.6 4.8 0 9.6 1.6 12.8 3.2 12.8 4.8 24 17.6 36.8 38.4 22.4 40 52.8 99.2 67.2 123.2 25.6 4.8 81.6 16 120 24 22.4 3.2 38.4 17.6 46.4 35.2 6.4 17.6 3.2 36.8-8 51.2-28.8 35.2-76.8 89.6-94.4 110.4 3.2 25.6 11.2 83.2 14.4 126.4 1.6 19.2-3.2 35.2-14.4 46.4-12.8 8-25.6 14.4-41.6 14.4z" fill="#2288D3" p-id="19767"></path><path d="M652.8 726.4c1.6 0 1.6 0 1.6 1.6v-3.2l-16-136-1.6-12.8 8-9.6s64-73.6 100.8-118.4c-1.6 0-1.6-1.6-3.2-1.6-51.2-9.6-132.8-25.6-134.4-25.6l-12.8-3.2-6.4-11.2c0-1.6-44.8-83.2-72-134.4 0-1.6-1.6-1.6-1.6-3.2 0 0-1.6 1.6-1.6 3.2v1.6c-28.8 49.6-73.6 132.8-73.6 132.8l-6.4 11.2-12.8 3.2c-1.6 0-83.2 16-136 25.6-1.6 0-3.2 0-3.2 1.6 36.8 44.8 100.8 116.8 102.4 116.8l8 9.6-1.6 12.8c0 1.6-11.2 81.6-16 136v3.2s1.6 0 3.2-1.6c43.2-20.8 107.2-54.4 126.4-64l12.8-6.4 12.8 6.4c-1.6 3.2 73.6 41.6 123.2 65.6z" fill="#2288D3" p-id="19768" data-spm-anchor-id="a313x.search_index.0.i22.40703a81MGTKkB" class="selected"></path></svg>