<svg width="32" height="32" viewBox="0 0 32 32" fill="none" xmlns="http://www.w3.org/2000/svg">
<g clip-path="url(#clip0_1846_109)">
<path d="M21.5971 20.6545C22.7535 20.6545 23.7105 19.8938 23.7105 18.832V18.1178L21.6509 18.2458C20.6575 18.3185 20.0931 18.768 20.0931 19.4633C20.0931 20.1964 20.6938 20.6531 21.5971 20.6531V20.6545ZM21.056 22.5004C19.1956 22.5004 17.5578 21.1418 17.5578 19.3745C17.5578 17.5898 19.0313 16.64 21.4444 16.64H24.1673V15.8589C24.1673 14.9425 23.6145 14.2967 22.6109 14.2967C21.6175 14.2967 20.7942 14.7462 20.6662 15.4691H18.3331C18.4349 13.5636 20.0233 11.9535 22.6109 11.9535C25.1171 11.9535 26.5004 13.4909 26.5004 15.4691V22.5004H24.1673V20.9382C23.6204 21.9811 22.2764 22.5004 21.0545 22.5004H21.056ZM11.3338 13.5156L10.1673 17.0313H12.8873L11.7236 13.5156H11.3353H11.3338ZM14.8335 22.5004L13.6669 19.3745H9.38909L8.22255 22.5004H5.49818L9.776 10H13.2756L17.5535 22.5004H14.832H14.8335ZM4 0H28C29.0609 0 30.0783 0.421427 30.8284 1.17157C31.5786 1.92172 32 2.93913 32 4V28C32 29.0609 31.5786 30.0783 30.8284 30.8284C30.0783 31.5786 29.0609 32 28 32H4C2.93913 32 1.92172 31.5786 1.17157 30.8284C0.421427 30.0783 0 29.0609 0 28V4C0 2.93913 0.421427 1.92172 1.17157 1.17157C1.92172 0.421427 2.93913 0 4 0ZM4.77964 2.90909C3.74691 2.90909 2.90909 3.74691 2.90909 4.77964V27.2204C2.90909 28.2531 3.74691 29.0909 4.77964 29.0909H27.2204C28.2531 29.0909 29.0909 28.2531 29.0909 27.2204V4.77964C29.0909 3.74691 28.2531 2.90909 27.2204 2.90909H4.77964Z" fill="black"/>
</g>
<defs>
<clipPath id="clip0_1846_109">
<rect width="32" height="32" fill="white"/>
</clipPath>
</defs>
</svg>
